# xmcd CD database file
#
# Track frame offsets:
#	150
#	16275
#	32025
#	63530
#	81982
#	105911
#	117089
#	140194
#	167870
#	191342
#	210994
#	235372
#	260575
#	272504
#	289609
#	313914
#	336268
#
# Disc length: 4834 seconds
#
# Revision: 0
# Processed by: cddbd v1.5.2PL0 Copyright (c) Steve Scherf et al.
# Submitted via: cdripper 1,0,39,0213
#
DISCID=f712e011
DTITLE=Diana Krall  - Collaborations
DYEAR=1900
DGENRE=Jazz
TTITLE0=Better Than Anything (with Natalie Cole)
TTITLE1=Alright, Okay (with Tony Bennett)
TTITLE2=And I Love Her (Beatles Tribute)
TTITLE3=Boy From Ipanema (with Rosemary Clooney)
TTITLE4=Love Dance (with Geoff Keezer)
TTITLE5=Little Boy (with Ray Brown)
TTITLE6=Echo Of My Dreams (with Benny Carter)
TTITLE7=Early Autumn (with Mark Whitfield)
TTITLE8=let's get lost (with terence blanchard
TTITLE9=The Folks Who Live (Dave Grusin )
TTITLE10=Danny Boy (with the Chieftains)
TTITLE11=Fresh Out Of Love (with Benny Carter)
TTITLE12=Detroit Blues (with Martien Oster)
TTITLE13=Blue Christmas (Celine Dion)
TTITLE14=I Thought About You (with Ray Brown)
TTITLE15=Soldier in the Rain (with Dave Grusin)
TTITLE16=La vie en rose (with Toots Thielemans)
EXTD=
EXTT0=
EXTT1=
EXTT2=
EXTT3=
EXTT4=
EXTT5=
EXTT6=
EXTT7=
EXTT8=
EXTT9=
EXTT10=
EXTT11=
EXTT12=
EXTT13=
EXTT14=
EXTT15=
EXTT16=
PLAYORDER=
